M48
; DRILL file {KiCad 5.1.5+dfsg1-2build2} date Sa 12 Sep 2020 14:49:09 CEST
; FORMAT={-:-/ absolute / metric / decimal}
; #@! TF.CreationDate,2020-09-12T14:49:09+02:00
; #@! TF.GenerationSoftware,Kicad,Pcbnew,5.1.5+dfsg1-2build2
FMAT,2
METRIC
T1C0.500
T2C0.800
T3C0.900
T4C1.000
T5C1.100
T6C1.200
T7C3.200
T8C3.000
%
G90
G05
T1
X3.45Y71.691
X3.556Y65.151
X4.064Y98.742
X6.032Y81.216
X7.048Y64.516
X10.096Y68.326
X13.081Y36.83
X13.208Y107.378
X14.605Y15.367
X16.383Y71.819
X16.447Y38.1
X16.51Y76.708
X18.669Y62.547
X19.431Y76.772
X20.959Y62.84
X20.975Y60.134
X22.225Y33.846
X22.288Y24.575
X23.177Y29.464
X24.765Y21.082
X25.463Y62.547
X26.48Y69.521
X28.003Y82.804
X28.258Y62.801
X30.226Y31.242
X30.67Y61.785
X31.559Y70.421
X32.131Y59.817
X33.401Y38.544
X34.163Y68.199
X35.941Y53.467
X36.767Y70.485
X39.37Y56.896
X42.311Y76.962
X43.282Y47.066
X46.799Y18.479
X50.038Y90.487
X54.673Y35.115
X54.673Y32.766
X54.673Y30.29
X68.707Y76.263
X73.406Y78.486
X74.168Y86.233
X75.248Y97.091
X77.216Y70.167
X81.534Y27.622
X84.899Y87.625
X85.026Y96.71
X97.409Y74.93
T2
X74.041Y83.145
X74.041Y80.645
X93.98Y81.875
X93.98Y79.375
X89.916Y44.958
X89.916Y42.458
X94.996Y45.045
X94.996Y42.545
X9.502Y17.209
X12.002Y17.209
X79.248Y95.367
X79.248Y91.567
X83.82Y69.215
X86.32Y69.215
X18.201Y74.231
X20.701Y74.231
X74.041Y76.2
X74.041Y73.7
T3
X60.134Y106.299
X60.134Y93.599
X70.294Y106.299
X70.294Y93.599
T4
X74.676Y38.354
X77.216Y38.354
X79.756Y38.354
X82.296Y38.354
X84.836Y38.354
X87.376Y38.354
X89.916Y38.354
X92.456Y38.354
X94.996Y38.354
X34.163Y80.518
X34.163Y77.978
X34.163Y75.438
X36.703Y80.518
X36.703Y77.978
X36.703Y75.438
X68.326Y37.719
X68.326Y35.179
X68.326Y32.639
X68.326Y30.099
X68.326Y27.559
X68.326Y25.019
X18.139Y83.544
X19.935Y85.34
X21.731Y87.136
X23.527Y88.932
X25.323Y90.728
X27.119Y92.524
X28.915Y94.32
X30.711Y96.116
T5
X74.535Y103.569
X89.535Y103.569
T6
X11.43Y85.217
X11.43Y82.677
X11.43Y80.137
X11.43Y77.597
X11.43Y75.057
X11.43Y72.517
X92.773Y98.679
X92.773Y96.139
X92.773Y93.599
X92.773Y91.059
X92.773Y88.519
X28.638Y107.442
X28.638Y104.902
X19.685Y107.442
X19.685Y104.902
T7
X5.0Y105.795
X95.0Y105.795
X5.0Y15.795
X95.0Y15.795
T8
X21.688Y67.471
X45.73Y91.513
X50.994Y44.692
X68.506Y62.203
T0
M30
