M48
; DRILL file {KiCad 5.1.5+dfsg1-2build2} date Mo 07 Sep 2020 21:53:31 CEST
; FORMAT={-:-/ absolute / metric / decimal}
; #@! TF.CreationDate,2020-09-07T21:53:31+02:00
; #@! TF.GenerationSoftware,Kicad,Pcbnew,5.1.5+dfsg1-2build2
FMAT,2
METRIC
T1C0.500
T2C0.800
T3C0.900
T4C1.000
T5C1.100
T6C1.200
T7C3.200
T8C3.000
%
G90
G05
T1
X2.667Y88.392
X3.35Y23.114
X7.366Y53.467
X7.874Y59.182
X13.081Y26.035
X13.208Y96.584
X14.224Y70.993
X14.605Y4.572
X15.051Y9.025
X15.855Y27.309
X16.764Y59.436
X17.653Y76.835
X18.923Y64.897
X19.284Y52.778
X19.559Y27.812
X20.935Y49.276
X20.959Y52.045
X21.717Y71.882
X22.733Y21.971
X22.86Y9.652
X22.987Y17.907
X22.987Y13.716
X24.745Y48.65
X25.273Y73.914
X26.035Y23.368
X27.305Y27.559
X27.686Y61.214
X28.575Y50.673
X29.591Y5.08
X30.226Y20.447
X30.48Y90.805
X30.861Y72.517
X30.988Y27.178
X31.115Y50.292
X31.519Y58.293
X33.02Y31.115
X33.759Y57.131
X34.611Y44.506
X35.179Y35.052
X35.941Y42.672
X37.529Y35.052
X68.707Y65.468
X73.406Y67.691
X74.168Y75.438
X75.248Y86.296
X83.185Y21.463
X84.201Y3.683
X85.026Y85.915
T2
X93.98Y71.08
X93.98Y68.58
X74.041Y65.405
X74.041Y62.905
X83.82Y58.42
X86.32Y58.42
X79.248Y84.572
X79.248Y80.772
X94.996Y34.25
X94.996Y31.75
X9.502Y6.413
X12.002Y6.413
X89.916Y34.163
X89.916Y31.663
X74.041Y72.35
X74.041Y69.85
X16.423Y61.722
X18.923Y61.722
T3
X60.134Y95.504
X60.134Y82.804
X70.294Y95.504
X70.294Y82.804
T4
X74.676Y27.559
X77.216Y27.559
X79.756Y27.559
X82.296Y27.559
X84.836Y27.559
X87.376Y27.559
X89.916Y27.559
X92.456Y27.559
X94.996Y27.559
X68.326Y26.924
X68.326Y24.384
X68.326Y21.844
X68.326Y19.304
X68.326Y16.764
X68.326Y14.224
X18.139Y72.749
X19.935Y74.545
X21.731Y76.341
X23.527Y78.137
X25.323Y79.933
X27.119Y81.729
X28.915Y83.525
X30.711Y85.321
X31.369Y66.675
X31.369Y64.135
X31.369Y61.595
X33.909Y66.675
X33.909Y64.135
X33.909Y61.595
T5
X74.535Y92.773
X89.535Y92.773
T6
X11.43Y74.422
X11.43Y71.882
X11.43Y69.342
X11.43Y66.802
X11.43Y64.262
X11.43Y61.722
X28.638Y96.647
X28.638Y94.107
X92.773Y87.884
X92.773Y85.344
X92.773Y82.804
X92.773Y80.264
X92.773Y77.724
X19.685Y96.647
X19.685Y94.107
T7
X95.0Y95.0
X5.0Y95.0
X5.0Y5.0
X95.0Y5.0
T8
X21.688Y56.676
X45.73Y80.718
X50.994Y33.897
X68.506Y51.408
T0
M30
